<svg width="32" height="32" viewBox="0 0 32 32" fill="none" xmlns="http://www.w3.org/2000/svg">
<path d="M0 16C0 7.16344 7.16344 0 16 0V0C24.8366 0 32 7.16344 32 16V16C32 24.8366 24.8366 32 16 32V32C7.16344 32 0 24.8366 0 16V16Z" fill="#F2F6FA"/>
<path d="M12.2105 14.1253C12.2105 13.9019 12.3002 13.6866 12.4618 13.5224L17.8947 8L18.4786 8.54783C18.7053 8.76055 18.802 9.06644 18.7355 9.36073L17.6843 14.0128H24.04C24.5613 14.0128 24.9846 14.4079 24.9873 14.897L25 17.1931L22.3936 23.4354C22.2513 23.7759 21.9013 24 21.5115 24H13.1579C12.6346 24 12.2105 23.602 12.2105 23.1111L12.2105 14.1253Z" stroke="#00539F"/>
<path d="M7 14.6667H9.3684V24H7V14.6667Z" stroke="#00539F"/>
</svg>
