<svg width="32" height="32" viewBox="0 0 32 32" fill="none" xmlns="http://www.w3.org/2000/svg">
<path d="M32 16C32 24.8364 24.8364 32 16 32C7.16356 32 0 24.8364 0 16C0 7.16356 7.16356 0 16 0C24.8364 0 32 7.16356 32 16Z" fill="#FFCC4D"/>
<path d="M15.9999 26.6667C17.9636 26.6667 19.5554 24.6768 19.5554 22.2222C19.5554 19.7676 17.9636 17.7778 15.9999 17.7778C14.0362 17.7778 12.4443 19.7676 12.4443 22.2222C12.4443 24.6768 14.0362 26.6667 15.9999 26.6667Z" fill="#664500"/>
<path d="M10.6666 15.1111C11.8939 15.1111 12.8888 13.7182 12.8888 12C12.8888 10.2818 11.8939 8.88889 10.6666 8.88889C9.43926 8.88889 8.44434 10.2818 8.44434 12C8.44434 13.7182 9.43926 15.1111 10.6666 15.1111Z" fill="#664500"/>
<path d="M21.3336 15.1111C22.5609 15.1111 23.5558 13.7182 23.5558 12C23.5558 10.2818 22.5609 8.88889 21.3336 8.88889C20.1063 8.88889 19.1113 10.2818 19.1113 12C19.1113 13.7182 20.1063 15.1111 21.3336 15.1111Z" fill="#664500"/>
</svg>
