<svg width="32" height="32" viewBox="0 0 32 32" fill="none" xmlns="http://www.w3.org/2000/svg">
<path d="M0 16C0 7.16344 7.16344 0 16 0V0C24.8366 0 32 7.16344 32 16V16C32 24.8366 24.8366 32 16 32V32C7.16344 32 0 24.8366 0 16V16Z" fill="#00539F"/>
<path d="M7 24H10.2727V14.4H7V24ZM25 15.2C25 14.32 24.2636 13.6 23.3636 13.6H18.2009L18.9782 9.944L19.0027 9.688C19.0027 9.36 18.8636 9.056 18.6427 8.84L17.7755 8L12.3918 13.272C12.0891 13.56 11.9091 13.96 11.9091 14.4V22.4C11.9091 23.28 12.6455 24 13.5455 24H20.9091C21.5882 24 22.1691 23.6 22.4145 23.024L24.8855 17.384C24.9591 17.2 25 17.008 25 16.8V15.2Z" fill="#F7F7F7"/>
</svg>
