<svg width="32" height="32" viewBox="0 0 32 32" fill="none" xmlns="http://www.w3.org/2000/svg">
<path d="M16 32C24.8366 32 32 24.8366 32 16C32 7.16344 24.8366 0 16 0C7.16344 0 0 7.16344 0 16C0 24.8366 7.16344 32 16 32Z" fill="#FFCC4D"/>
<path d="M9.34649 20.9965C9.38649 21.1556 10.3847 24.8889 15.9998 24.8889C21.6158 24.8889 22.6132 21.1556 22.6532 20.9965C22.702 20.8036 22.6149 20.6036 22.4425 20.504C22.2692 20.4053 22.0523 20.4347 21.9092 20.5725C21.8923 20.5893 20.1723 22.2222 15.9998 22.2222C11.8274 22.2222 10.1065 20.5893 10.0905 20.5733C10.0052 20.4889 9.89138 20.4445 9.7776 20.4445C9.70293 20.4445 9.62738 20.4631 9.55893 20.5013C9.38471 20.6009 9.2976 20.8027 9.34649 20.9965V20.9965Z" fill="#664500"/>
<path d="M10.6666 15.1111C11.8939 15.1111 12.8888 13.7182 12.8888 12C12.8888 10.2818 11.8939 8.88889 10.6666 8.88889C9.43926 8.88889 8.44434 10.2818 8.44434 12C8.44434 13.7182 9.43926 15.1111 10.6666 15.1111Z" fill="#664500"/>
<path d="M21.3336 15.1111C22.5609 15.1111 23.5558 13.7182 23.5558 12C23.5558 10.2818 22.5609 8.88889 21.3336 8.88889C20.1063 8.88889 19.1113 10.2818 19.1113 12C19.1113 13.7182 20.1063 15.1111 21.3336 15.1111Z" fill="#664500"/>
</svg>
