<svg width="32" height="32" viewBox="0 0 32 32" fill="none" xmlns="http://www.w3.org/2000/svg">
<path d="M31.5 16C31.5 24.5603 24.5603 31.5 16 31.5C7.44057 31.5 0.5 24.5603 0.5 16C0.5 7.44059 7.44059 0.5 16 0.5C24.5603 0.5 31.5 7.44057 31.5 16Z" stroke="#00539F"/>
<path fill-rule="evenodd" clip-rule="evenodd" d="M21.3338 12.8889C23.9631 12.8889 25.2422 15.6996 25.2955 15.8196C25.3782 16.0044 25.324 16.2213 25.1667 16.3476C25.0858 16.4116 24.9871 16.4444 24.8893 16.4444C24.7969 16.4444 24.7027 16.4151 24.6244 16.3564C24.5995 16.3387 23.4902 15.5556 21.3338 15.5556C19.1649 15.5556 18.0538 16.3493 18.0431 16.3573C17.8795 16.4756 17.6564 16.4711 17.5009 16.3449C17.3435 16.2187 17.2902 16.0036 17.372 15.8196C17.4253 15.6996 18.7053 12.8889 21.3338 12.8889ZM10.6671 12.8889C13.2964 12.8889 14.5755 15.6996 14.6289 15.8196C14.7107 16.0044 14.6582 16.2213 14.5 16.3476C14.4191 16.4116 14.3204 16.4444 14.2227 16.4444C14.1302 16.4444 14.036 16.4151 13.9578 16.3564C13.9329 16.3387 12.8235 15.5556 10.6671 15.5556C8.51649 15.5556 7.4068 16.3354 7.37611 16.3569L7.37555 16.3573C7.21288 16.4756 6.98977 16.4711 6.83332 16.3449C6.67688 16.2187 6.62355 16.0036 6.70532 15.8196C6.75866 15.6996 8.03866 12.8889 10.6671 12.8889ZM8.00043 18.6667C10.6431 19.1804 12.78 19.5556 16.0004 19.5556C19.2209 19.5556 21.3578 19.1804 24.0004 18.6667C24.604 18.5493 25.7782 18.6667 25.7782 20.4444C25.7782 24 21.6929 28.4444 16.0004 28.4444C10.3071 28.4444 6.22266 24 6.22266 20.4444C6.22266 18.6667 7.39688 18.5502 8.00043 18.6667ZM16 21.3333C10.6667 21.3333 8 20.4445 8 20.4445C8 20.4445 9.77778 24 16 24C22.2222 24 24 20.4445 24 20.4445C24 20.4445 21.3333 21.3333 16 21.3333Z" fill="#00539F"/>
</svg>
