<svg width="32" height="32" viewBox="0 0 32 32" fill="none" xmlns="http://www.w3.org/2000/svg">
<path d="M32 16C32 24.8364 24.8364 32 16 32C7.16444 32 0 24.8364 0 16C0 7.16444 7.16444 0 16 0C24.8364 0 32 7.16444 32 16Z" fill="#FFCC4D"/>
<path d="M25.2955 15.8196C25.2422 15.6996 23.9631 12.8889 21.3338 12.8889C18.7053 12.8889 17.4253 15.6996 17.372 15.8196C17.2902 16.0036 17.3435 16.2187 17.5009 16.3449C17.6564 16.4711 17.8795 16.4756 18.0431 16.3573C18.0538 16.3493 19.1649 15.5556 21.3338 15.5556C23.4902 15.5556 24.5995 16.3387 24.6244 16.3564C24.7027 16.4151 24.7969 16.4444 24.8893 16.4444C24.9871 16.4444 25.0858 16.4116 25.1667 16.3476C25.324 16.2213 25.3782 16.0044 25.2955 15.8196V15.8196ZM14.6289 15.8196C14.5755 15.6996 13.2964 12.8889 10.6671 12.8889C8.03866 12.8889 6.75866 15.6996 6.70532 15.8196C6.62355 16.0036 6.67688 16.2187 6.83332 16.3449C6.98977 16.4711 7.21288 16.4756 7.37554 16.3573C7.3871 16.3493 8.49732 15.5556 10.6671 15.5556C12.8235 15.5556 13.9329 16.3387 13.9578 16.3564C14.036 16.4151 14.1302 16.4444 14.2227 16.4444C14.3204 16.4444 14.4191 16.4116 14.5 16.3476C14.6582 16.2213 14.7107 16.0044 14.6289 15.8196V15.8196ZM16.0004 19.5556C12.78 19.5556 10.6431 19.1804 8.00043 18.6667C7.39688 18.5502 6.22266 18.6667 6.22266 20.4444C6.22266 24 10.3071 28.4444 16.0004 28.4444C21.6929 28.4444 25.7782 24 25.7782 20.4444C25.7782 18.6667 24.604 18.5493 24.0004 18.6667C21.3578 19.1804 19.2209 19.5556 16.0004 19.5556Z" fill="#664500"/>
<path d="M8 20.4445C8 20.4445 10.6667 21.3333 16 21.3333C21.3333 21.3333 24 20.4445 24 20.4445C24 20.4445 22.2222 24 16 24C9.77778 24 8 20.4445 8 20.4445Z" fill="white"/>
</svg>
