<svg width="32" height="32" viewBox="0 0 32 32" fill="none" xmlns="http://www.w3.org/2000/svg">
<path d="M0 16C0 7.16344 7.16344 0 16 0V0C24.8366 0 32 7.16344 32 16V16C32 24.8366 24.8366 32 16 32V32C7.16344 32 0 24.8366 0 16V16Z" fill="#EE1C2E"/>
<path d="M17.2143 23.5319C16.5306 24.1575 15.478 24.1575 14.7942 23.5229L14.6953 23.4322C9.97207 19.1255 6.88626 16.3057 7.00321 12.7878C7.05719 11.2465 7.83989 9.76861 9.1084 8.8982C11.4835 7.26619 14.4164 8.02779 15.9998 9.89554C17.5831 8.02779 20.516 7.25712 22.8911 8.8982C24.1596 9.76861 24.9423 11.2465 24.9963 12.7878C25.1222 16.3057 22.0274 19.1255 17.3043 23.4503L17.2143 23.5319Z" fill="#F7F7F7"/>
<path d="M16 31C7.71573 31 1 24.2843 1 16H-1C-1 25.3888 6.61116 33 16 33V31ZM31 16C31 24.2843 24.2843 31 16 31V33C25.3888 33 33 25.3888 33 16H31ZM16 1C24.2843 1 31 7.71573 31 16H33C33 6.61116 25.3888 -1 16 -1V1ZM16 -1C6.61116 -1 -1 6.61116 -1 16H1C1 7.71573 7.71573 1 16 1V-1Z" fill="#EE1C2E"/>
</svg>
