<svg width="32" height="32" viewBox="0 0 32 32" fill="none" xmlns="http://www.w3.org/2000/svg">
<path d="M0 16C0 7.16344 7.16344 0 16 0V0C24.8366 0 32 7.16344 32 16V16C32 24.8366 24.8366 32 16 32V32C7.16344 32 0 24.8366 0 16V16Z" fill="#F2F6FA"/>
<path fill-rule="evenodd" clip-rule="evenodd" d="M16 24C14.5733 23.1624 7 18.4009 7 13.2395C7 10.2146 9.07568 8 11.8297 8C13.3767 8 14.38 8.45553 15.6637 9.74306L16 10.08L16.3363 9.74306C17.62 8.45553 18.6233 8 20.1703 8C22.9243 8 25 10.2146 25 13.152C25 18.3972 17.4267 23.1624 16 24Z" stroke="#00539F" stroke-width="1.2"/>
</svg>
