<svg width="40" height="44" viewBox="0 0 40 44" fill="none" xmlns="http://www.w3.org/2000/svg">
<path d="M20 31V0.625C25.9018 0.625 29.414 1.5925 34.1998 5.3635M35.17 43.375C30.5867 40.7357 24.7997 38.875 20.0005 38.875C15.7727 38.875 10.7665 40.3105 6.50045 42.4547C5.9222 42.745 5.37545 43.06 4.8287 43.375M5.375 23.125C2.89325 23.125 0.875 21.1067 0.875 18.625C0.875 16.1432 2.89325 14.125 5.375 14.125C7.85675 14.125 9.875 16.1432 9.875 18.625C9.875 21.1067 7.85675 23.125 5.375 23.125ZM34.625 23.125C32.1433 23.125 30.125 21.1067 30.125 18.625C30.125 16.1432 32.1433 14.125 34.625 14.125C37.1068 14.125 39.125 16.1432 39.125 18.625C39.125 21.1067 37.1068 23.125 34.625 23.125Z" stroke="#CC3333" stroke-width="1.2"/>
</svg>
