<svg width="18" height="20" viewBox="0 0 18 20" fill="none" xmlns="http://www.w3.org/2000/svg">
<path fill-rule="evenodd" clip-rule="evenodd" d="M9.5 8.86973V0H8.5V8.86973L3.83634 4.63004L3.16366 5.36998L8.66366 10.37L9 10.6757L9.33634 10.37L14.8363 5.36998L14.1637 4.63004L9.5 8.86973ZM1 18.5V10.5L1.4658 10.5L3.11437 10.5C3.37802 13.2771 5.80175 15.9 8.99898 15.9C12.1962 15.9 14.6199 13.2771 14.8836 10.5L16.5322 10.5L16.998 10.5V18.5H1ZM17.498 9.50001L17.498 10L17.4979 9.50001H17.4979H17.4977H17.4968H17.4935H17.4802H17.4285L17.2324 9.50001L16.5322 9.50001L14.4074 9.50001L13.9074 9.50001V10C13.9074 12.4464 11.7914 14.9 8.99898 14.9C6.20658 14.9 4.09054 12.4464 4.09054 10V9.50002L3.59055 9.50001L1.46579 9.5L0.765587 9.50001L0.569409 9.50001L0.517723 9.50001H0.504471H0.501117H0.500273H0.500062H0.500009L0.5 10L0.499991 9.50001L0 9.50002V10V19V19.5H0.5H17.498H17.998V19V10V9.50001L17.498 9.50001Z" fill="#00539F"/>
</svg>
