<svg width="18" height="21" viewBox="0 0 18 21" fill="none" xmlns="http://www.w3.org/2000/svg">
<path fill-rule="evenodd" clip-rule="evenodd" d="M9.5 2.13028V11H8.5V2.13028L3.83634 6.36997L3.16366 5.63003L8.66366 0.630039L9 0.32428L9.33634 0.630039L14.8363 5.63003L14.1637 6.36997L9.5 2.13028ZM1 19.5V11.5L1.4658 11.5L3.11437 11.5C3.37802 14.2771 5.80175 16.9 8.99898 16.9C12.1962 16.9 14.6199 14.2771 14.8836 11.5L16.5322 11.5L16.998 11.5V19.5H1ZM17.498 10.5L17.498 11L17.4979 10.5H17.4979H17.4977H17.4968H17.4935H17.4802H17.4285L17.2324 10.5L16.5322 10.5L14.4074 10.5L13.9074 10.5V11C13.9074 13.4464 11.7914 15.9 8.99898 15.9C6.20658 15.9 4.09054 13.4464 4.09054 11V10.5L3.59055 10.5L1.46579 10.5L0.765587 10.5L0.569409 10.5L0.517723 10.5H0.504471H0.501117H0.500273H0.500062H0.500009L0.5 11L0.499991 10.5L0 10.5V11V20V20.5H0.5H17.498H17.998V20V11V10.5L17.498 10.5Z" fill="#00539F"/>
</svg>
