<svg width="14" height="14" viewBox="0 0 14 14" fill="none" xmlns="http://www.w3.org/2000/svg">
<path fill-rule="evenodd" clip-rule="evenodd" d="M14 7C14 10.866 10.866 14 7 14C3.13401 14 0 10.866 0 7C0 3.13401 3.13401 0 7 0C10.866 0 14 3.13401 14 7ZM12.8658 7.41288C12.8753 7.27648 12.8801 7.1388 12.8801 7C12.8801 3.75256 10.2475 1.12 7.00007 1.12C3.75263 1.12 1.12007 3.75256 1.12007 7C1.12007 8.11715 1.43162 9.16155 1.97257 10.051L4.48002 8.25999L7.00002 9.93999L10.36 6.15999L12.8658 7.41288ZM4.90002 3.63999C5.5959 3.63999 6.16002 4.20411 6.16002 4.89999C6.16002 5.59587 5.5959 6.15999 4.90002 6.15999C4.20414 6.15999 3.64002 5.59587 3.64002 4.89999C3.64002 4.20411 4.20414 3.63999 4.90002 3.63999Z" fill="#00539F"/>
</svg>
