<svg width="24" height="24" viewBox="0 0 24 24" fill="none" xmlns="http://www.w3.org/2000/svg">
<path d="M17.5974 9.32233C17.8492 9.07041 18.049 8.77135 18.1853 8.44222C18.3216 8.11309 18.3917 7.76033 18.3917 7.4041C18.3916 7.04787 18.3214 6.69513 18.1851 6.36602C18.0488 6.03692 17.8489 5.73789 17.597 5.48602C17.3451 5.23414 17.0461 5.03436 16.717 4.89806C16.3879 4.76177 16.0352 4.69163 15.679 4.69167C15.3228 4.6917 14.9701 4.7619 14.641 4.89825C14.3119 5.03461 14.0129 5.23445 13.7611 5.48637L10.9604 8.28698C10.4525 8.79599 10.1672 9.48575 10.1672 10.2049C10.1672 10.924 10.4525 11.6137 10.9604 12.1228C11.1347 12.297 11.2325 12.5333 11.2325 12.7797C11.2325 13.0261 11.1347 13.2624 10.9604 13.4367C10.7862 13.6109 10.5499 13.7088 10.3035 13.7088C10.0571 13.7088 9.82085 13.6109 9.64663 13.4367C8.79075 12.5789 8.31008 11.4166 8.31008 10.2049C8.31008 8.99309 8.79075 7.8308 9.64663 6.97305L12.4473 4.17243C13.3044 3.31519 14.4668 2.83356 15.679 2.8335C16.2792 2.83347 16.8735 2.95166 17.428 3.18134C17.9826 3.41102 18.4864 3.74768 18.9109 4.1721C19.3353 4.59652 19.672 5.10039 19.9017 5.65494C20.1314 6.20949 20.2496 6.80386 20.2497 7.40411C20.2497 8.00437 20.1315 8.59875 19.9019 9.15332C19.6722 9.70789 19.3356 10.2118 18.9112 10.6363L17.524 12.0233C17.3497 12.1973 17.1135 12.295 16.8672 12.2949C16.621 12.2948 16.3848 12.1969 16.2107 12.0228C16.0366 11.8486 15.9387 11.6125 15.9386 11.3662C15.9385 11.1199 16.0362 10.8837 16.2102 10.7094L17.5974 9.32233ZM4.16953 18.9137C5.02745 19.7696 6.18976 20.2502 7.40153 20.2502C8.61329 20.2501 9.77557 19.7694 10.6334 18.9135L13.434 16.1131C13.8584 15.6888 14.1951 15.1849 14.4248 14.6304C14.6545 14.0759 14.7727 13.4815 14.7727 12.8813C14.7727 12.2811 14.6545 11.6867 14.4248 11.1322C14.1951 10.5777 13.8584 10.0739 13.434 9.64949C13.2597 9.47549 13.0235 9.37781 12.7772 9.37791C12.531 9.37801 12.2948 9.47589 12.1207 9.65004C11.9466 9.82418 11.8487 10.0603 11.8486 10.3066C11.8485 10.5529 11.9462 10.7891 12.1202 10.9634C12.3721 11.2153 12.5719 11.5143 12.7082 11.8434C12.8445 12.1725 12.9147 12.5252 12.9147 12.8814C12.9147 13.2376 12.8445 13.5903 12.7082 13.9194C12.5719 14.2485 12.3721 14.5475 12.1202 14.7994L9.31964 17.5998C9.06779 17.8517 8.7688 18.0516 8.43972 18.1879C8.11064 18.3243 7.75794 18.3945 7.40173 18.3945C7.04553 18.3945 6.69281 18.3244 6.36371 18.1881C6.03461 18.0518 5.73557 17.852 5.48368 17.6002C4.97495 17.0915 4.68911 16.4015 4.68905 15.6821C4.68902 15.3258 4.75914 14.9731 4.89543 14.644C5.03171 14.3148 5.23148 14.0158 5.48333 13.7638L6.87047 12.3768C7.04445 12.2025 7.14213 11.9662 7.14203 11.72C7.14193 11.4737 7.04406 11.2375 6.86993 11.0634C6.6958 10.8892 6.45966 10.7914 6.21341 10.7913C5.96716 10.7912 5.73094 10.8888 5.55666 11.0628L4.16953 12.4499C3.31367 13.3077 2.83301 14.47 2.83301 15.6818C2.83301 16.8936 3.31367 18.0559 4.16953 18.9137V18.9137Z" fill="#00539F"/>
</svg>
