<svg width="40" height="40" viewBox="0 0 40 40" fill="none" xmlns="http://www.w3.org/2000/svg">
<path d="M0 20C0 8.95431 8.95431 0 20 0C31.0457 0 40 8.95431 40 20C40 31.0457 31.0457 40 20 40C8.95431 40 0 31.0457 0 20Z" fill="#F2F6FA"/>
<path fill-rule="evenodd" clip-rule="evenodd" d="M15.5 15.3144L16.1495 14.6649L19.5361 18.1907V11H20.4639V18.1907L23.8505 14.6649L24.5 15.3144L20 20L15.5 15.3144Z" fill="#00539F"/>
<path fill-rule="evenodd" clip-rule="evenodd" d="M15.5 20H11V29H29V20H24.5C24.5 20 24 23.5 20 23.5C16 23.5 15.5 20 15.5 20ZM14.5 21H12V28H28V21H25.5C25.5 21 24.2307 24.6 20 24.6C15.7693 24.6 14.5 21 14.5 21Z" fill="#00539F"/>
</svg>
