<?xml version="1.0" encoding="utf-8"?>
<!-- Generator: Adobe Illustrator 24.2.1, SVG Export Plug-In . SVG Version: 6.00 Build 0)  -->
<svg width="100" height="100" xmlns="http://www.w3.org/2000/svg" xml:space="preserve" version="1.1">
 <g>
  <title>Layer 1</title>
  <path id="svg_1" fill="#e62432" clip-rule="evenodd" fill-rule="evenodd" d="M 24.5 18.9 l 51.1 0 l 0 11.2 c -3.6 -3.1 -11.3 -4.3 -19.5 -4.3 l 0 30.5 c 0 4.5 0.4 5.8 2.1 8.1 l -16.3 0 c 1.8 -2.3 2.1 -3.6 2.1 -8.1 l 0 -30.5 c -8.2 0 -15.9 1.2 -19.5 4.3 c 0 0 0 -11.2 0 -11.2 z" class="st0"/>
  <path id="svg_2" fill="#02549f" d="M 74.9 71.9 l -30.9 0 c -5 0 -9 3.1 -10.9 5.4 c 0 0 -4.8 5 -8 6.8 l -0.1 0.1 l -0.1 0.1 l 0.1 0.2 l 29.4 0 c 5.7 0 8.4 -2.2 12 -5.6 c 0 0 4.8 -5 8.4 -6.6 l 0.1 0 l 0.1 -0.1 l -0.1 -0.3 l 0 0 l 0 0 l 0 0" class="st1"/>
 </g>
</svg>