<svg width="24" height="24" viewBox="0 0 24 24" fill="none" xmlns="http://www.w3.org/2000/svg">
<path d="M18.7002 21.1001H5.7002C3.8002 21.1001 2.2002 19.5001 2.2002 17.6001V8.6001C2.2002 6.7001 3.8002 5.1001 5.7002 5.1001H18.7002C20.6002 5.1001 22.2002 6.7001 22.2002 8.6001V17.6001C22.2002 19.6001 20.6002 21.1001 18.7002 21.1001Z" fill="#E6EEF5"/>
<path d="M18.5 20H5.5C3.6 20 2 18.2 2 16.0625V5.9375C2 3.8 3.6 2 5.5 2H18.5C20.4 2 22 3.8 22 5.9375V16.0625C22 18.2 20.4 20 18.5 20Z" fill="#F7F9FA"/>
<path d="M6.09961 0.399902C5.49961 0.399902 5.09961 0.799902 5.09961 1.3999V3.3999C5.09961 3.9999 5.49961 4.3999 6.09961 4.3999C6.69961 4.3999 7.09961 3.9999 7.09961 3.3999V1.3999C7.09961 0.799902 6.59961 0.399902 6.09961 0.399902Z" fill="#E6EEF5"/>
<path d="M10.0996 0.299805C9.49961 0.299805 9.09961 0.699805 9.09961 1.2998V3.2998C9.09961 3.89981 9.49961 4.2998 10.0996 4.2998C10.6996 4.2998 11.0996 3.89981 11.0996 3.2998V1.2998C11.0996 0.699805 10.6996 0.299805 10.0996 0.299805Z" fill="#E6EEF5"/>
<path d="M14.1992 0.299805C13.5992 0.299805 13.1992 0.699805 13.1992 1.2998V3.2998C13.1992 3.89981 13.5992 4.2998 14.1992 4.2998C14.7992 4.2998 15.1992 3.89981 15.1992 3.2998V1.2998C15.1992 0.699805 14.6992 0.299805 14.1992 0.299805Z" fill="#E6EEF5"/>
<path d="M18.2998 0.299805C17.6998 0.299805 17.2998 0.699805 17.2998 1.2998V3.2998C17.2998 3.89981 17.6998 4.2998 18.2998 4.2998C18.8998 4.2998 19.2998 3.89981 19.2998 3.2998V1.2998C19.2998 0.699805 18.7998 0.299805 18.2998 0.299805Z" fill="#E6EEF5"/>
<path d="M11.9998 5.8999L13.3998 8.7999L16.6998 9.1999L14.2998 11.4999L14.8998 14.6999L11.9998 13.1999L9.0998 14.6999L9.6998 11.4999L7.2998 9.1999L10.5998 8.7999L11.9998 5.8999Z" fill="#007EB3"/>
</svg>
