<svg width="25" height="24" viewBox="0 0 25 24" fill="none" xmlns="http://www.w3.org/2000/svg">
<path d="M6.3127 22.0001C6.3127 21.5001 6.6127 21.1001 7.1127 21.0001C8.9127 20.6001 10.2127 19.0001 10.2127 17.1001V6.1001C10.2127 5.5001 10.6127 5.1001 11.2127 5.1001H19.5127V2.1001H3.5127V17.1001C3.5127 19.8001 3.6127 21.9001 6.3127 22.1001V22.0001Z" fill="#007EB3"/>
<path d="M12.0125 6.20022C11.5125 6.20022 11.2125 6.50024 11.2125 6.90024V17.1002C11.2125 19.5002 9.6125 21.4002 7.3125 22.0002V22.1002H18.1125C20.9125 22.1002 23.1125 19.8002 23.1125 17.1002V7.00024C23.1125 6.50024 22.7125 6.20024 22.3125 6.20024L12.0125 6.20022Z" fill="#E6EEF5"/>
<path d="M21.8127 7.7002H12.5127V10.3002H21.8127V7.7002Z" fill="#007EB3"/>
<path d="M21.8127 11.6001H12.5127V14.2001H21.8127V11.6001Z" fill="#007EB3"/>
</svg>
