<svg width="25" height="24" viewBox="0 0 25 24" fill="none" xmlns="http://www.w3.org/2000/svg">
<path d="M6.12925 9.11572H2.17188V13.0731H6.12925V9.11572Z" fill="#007EB3"/>
<path d="M6.12971 13.7529H2.17251C1.79679 13.7529 1.49219 13.4484 1.49219 13.0726V9.11538C1.49219 8.73966 1.79675 8.43506 2.17251 8.43506H6.12971C6.50543 8.43506 6.81003 8.73962 6.81003 9.11538V13.0726C6.81003 13.4483 6.50547 13.7529 6.12971 13.7529ZM2.85283 12.3923H5.44943V9.79566H2.85283V12.3923Z" fill="#F7F9FA"/>
<path d="M14.4129 13.7529H10.4557C10.08 13.7529 9.77539 13.4484 9.77539 13.0726V9.11538C9.77539 8.73966 10.08 8.43506 10.4557 8.43506H14.4129C14.7886 8.43506 15.0932 8.73962 15.0932 9.11538C15.0932 9.49114 14.7886 9.79571 14.4129 9.79571H11.136V12.3923H14.4129C14.7886 12.3923 15.0932 12.6969 15.0932 13.0726C15.0932 13.4484 14.7886 13.7529 14.4129 13.7529Z" fill="#F7F9FA"/>
<path d="M22.6957 9.11572H18.7383V13.0731H22.6957V9.11572Z" fill="#007EB3"/>
<path d="M22.6961 13.7529H18.7389C18.3632 13.7529 18.0586 13.4484 18.0586 13.0726V9.11538C18.0586 8.73966 18.3632 8.43506 18.7389 8.43506H22.6961C23.0718 8.43506 23.3764 8.73962 23.3764 9.11538V13.0726C23.3764 13.4483 23.0719 13.7529 22.6961 13.7529ZM19.4192 12.3923H22.0158V9.79566H19.4192V12.3923Z" fill="#F7F9FA"/>
</svg>
