<svg width="25" height="24" viewBox="0 0 25 24" fill="none" xmlns="http://www.w3.org/2000/svg">
<path d="M6.12729 9.11572H2.16992V13.0731H6.12729V9.11572Z" fill="#E6EEF5"/>
<path d="M6.12776 13.7529H2.17056C1.79484 13.7529 1.49023 13.4484 1.49023 13.0726V9.11538C1.49023 8.73966 1.7948 8.43506 2.17056 8.43506H6.12776C6.50347 8.43506 6.80808 8.73962 6.80808 9.11538V13.0726C6.80808 13.4483 6.50352 13.7529 6.12776 13.7529ZM2.85088 12.3923H5.44748V9.79566H2.85088V12.3923Z" fill="#007EB3"/>
<path d="M14.411 13.7529H10.4538C10.078 13.7529 9.77344 13.4484 9.77344 13.0726V9.11538C9.77344 8.73966 10.078 8.43506 10.4538 8.43506H14.411C14.7866 8.43506 15.0913 8.73962 15.0913 9.11538C15.0913 9.49114 14.7866 9.79571 14.411 9.79571H11.134V12.3923H14.411C14.7866 12.3923 15.0913 12.6969 15.0913 13.0726C15.0913 13.4484 14.7866 13.7529 14.411 13.7529Z" fill="#007EB3"/>
<path d="M22.6947 9.11572H18.7373V13.0731H22.6947V9.11572Z" fill="#E6EEF5"/>
<path d="M22.6951 13.7529H18.7379C18.3623 13.7529 18.0576 13.4484 18.0576 13.0726V9.11538C18.0576 8.73966 18.3623 8.43506 18.7379 8.43506H22.6951C23.0708 8.43506 23.3755 8.73962 23.3755 9.11538V13.0726C23.3755 13.4483 23.0709 13.7529 22.6951 13.7529ZM19.4183 12.3923H22.0149V9.79566H19.4183V12.3923Z" fill="#007EB3"/>
</svg>
