<svg width="25" height="24" viewBox="0 0 25 24" fill="none" xmlns="http://www.w3.org/2000/svg">
<path fill-rule="evenodd" clip-rule="evenodd" d="M13.5 7C13.5 8.933 11.933 10.5 10 10.5C8.067 10.5 6.5 8.933 6.5 7C6.5 5.067 8.067 3.5 10 3.5C11.933 3.5 13.5 5.067 13.5 7Z" stroke="#00539F" stroke-width="1.2"/>
<path fill-rule="evenodd" clip-rule="evenodd" d="M1.5 20.5C2.518 16.409 6.076 13.5 10 13.5C13.924 13.5 17.482 16.409 18.5 20.5H1.5Z" stroke="#00539F" stroke-width="1.2"/>
<path d="M14.8664 10.8329C14.8664 10.8329 15.7193 10.7236 16.1555 10.7236C19.9178 10.7236 23.279 13.5025 24.2377 17.3551L24.4231 18.1H20.8869C20.6915 17.6843 20.4717 17.2836 20.2296 16.9H22.8486C21.7934 13.936 19.079 11.9236 16.1555 11.9236C15.4157 11.9236 14 12.2929 14 12.2929L14.8664 10.8329Z" fill="#00539F"/>
<path d="M16.1085 9.2762C16.3051 8.89226 16.4536 8.47955 16.5458 8.04605C17.7346 7.85872 18.6437 6.82966 18.6437 5.58826C18.6437 4.21404 17.5297 3.10002 16.1555 3.10002C15.7666 3.10002 15.3986 3.18921 15.0708 3.34825C14.7532 3.05105 14.3967 2.79482 14.0099 2.58797C14.6144 2.15492 15.3551 1.90002 16.1555 1.90002C18.1924 1.90002 19.8437 3.5513 19.8437 5.58826C19.8437 7.62522 18.1924 9.27649 16.1555 9.27649C16.1398 9.27649 16.1241 9.2764 16.1085 9.2762Z" fill="#00539F"/>
</svg>
