<svg width="25" height="24" viewBox="0 0 25 24" fill="none" xmlns="http://www.w3.org/2000/svg">
<path d="M12.1875 6.9999C13.5681 6.9999 14.6874 5.88064 14.6874 4.49995C14.6874 3.11927 13.5681 2 12.1875 2C10.8068 2 9.6875 3.11927 9.6875 4.49995C9.6875 5.88064 10.8068 6.9999 12.1875 6.9999Z" fill="#007EB3"/>
<path d="M15.9323 13.7949L15.3648 9.37498C15.3011 8.73374 14.7661 8.25 14.1223 8.25H13.4373C13.2711 8.25 13.1124 8.31625 12.9949 8.4325L12.1874 9.23998L11.3799 8.4325C11.2624 8.31625 11.1036 8.25 10.9374 8.25H10.2537C9.60867 8.25 9.07368 8.73374 9.01118 9.35873L8.44244 13.7961C8.41994 13.9736 8.47494 14.1536 8.59369 14.2874C8.71244 14.4224 8.88243 14.4999 9.06243 14.4999H9.73742L10.2599 20.8748C10.3224 21.5147 10.8586 21.9997 11.5036 21.9997H12.8724C13.5173 21.9997 14.0523 21.5147 14.1173 20.8635L14.6386 14.4999H15.3123C15.4923 14.4999 15.6623 14.4224 15.781 14.2874C15.901 14.1536 15.956 13.9736 15.9323 13.7949Z" fill="#007EB3"/>
<path d="M18.4375 6.9999C19.8181 6.9999 20.9374 5.88064 20.9374 4.49995C20.9374 3.11927 19.8181 2 18.4375 2C17.0568 2 15.9375 3.11927 15.9375 4.49995C15.9375 5.88064 17.0568 6.9999 18.4375 6.9999Z" fill="#007EB3"/>
<path d="M5.93745 2C4.55873 2 3.4375 3.12123 3.4375 4.49995C3.4375 5.87867 4.55873 6.9999 5.93745 6.9999C7.31492 6.9999 8.4374 5.87867 8.4374 4.49995C8.4374 3.12123 7.31492 2 5.93745 2Z" fill="#007EB3"/>
<path d="M22.1818 13.7949L21.6143 9.37623C21.5506 8.73374 21.0168 8.25 20.3719 8.25H19.6869C19.5206 8.25 19.3619 8.31625 19.2444 8.4325L18.4369 9.23998L17.6294 8.4325C17.5119 8.31625 17.3532 8.25 17.1882 8.25H16.5032C16.4257 8.25 16.3557 8.2775 16.2819 8.29125C16.4432 8.57624 16.5694 8.88499 16.6069 9.23123L17.1732 13.6361C17.2432 14.1724 17.0757 14.7124 16.7157 15.1186C16.5457 15.3136 16.3282 15.4511 16.0957 15.5586L16.5107 19.6248C16.5744 20.266 17.1094 20.7498 17.7544 20.7498H19.1231C19.7681 20.7498 20.3031 20.2648 20.3681 19.6135L20.8881 14.4999H21.5618C21.7418 14.4999 21.9118 14.4224 22.0306 14.2874C22.1506 14.1536 22.2056 13.9736 22.1818 13.7949Z" fill="#007EB3"/>
<path d="M7.65487 15.1124C7.29988 14.7111 7.13488 14.1724 7.20238 13.6386L7.77112 9.19998C7.80362 8.86749 7.92612 8.56749 8.08237 8.29C8.01237 8.2775 7.94612 8.25 7.87237 8.25H7.18738C7.02114 8.25 6.86239 8.31625 6.74489 8.4325L5.93741 9.23998L5.12992 8.4325C5.01243 8.31625 4.85368 8.25 4.68868 8.25H4.00366C3.35867 8.25 2.82368 8.73374 2.76118 9.35873L2.19244 13.7961C2.16994 13.9736 2.22494 14.1536 2.34369 14.2874C2.46244 14.4224 2.63368 14.4999 2.81243 14.4999H3.48742L4.00991 19.6248C4.07241 20.2648 4.60865 20.7498 5.25363 20.7498H6.62236C7.26734 20.7498 7.80233 20.2648 7.86733 19.6135L8.28232 15.5574C8.04862 15.4486 7.82987 15.3099 7.65487 15.1124Z" fill="#007EB3"/>
</svg>
