<svg width="20" height="20" viewBox="0 0 20 20" fill="none" xmlns="http://www.w3.org/2000/svg">
<path d="M11.9548 6.64164L11.8377 7.23797H12.4455H18.1818C18.8791 7.23797 19.5 7.85311 19.5 8.6631V10.5882C19.5 10.7729 19.4673 10.9433 19.4062 11.1109L16.6638 17.8895L16.6637 17.8895L16.662 17.8939C16.4578 18.4127 15.986 18.7513 15.4545 18.7513H7.27273C6.57541 18.7513 5.95455 18.1362 5.95455 17.3262V7.70053C5.95455 7.29804 6.10603 6.94258 6.34968 6.69157L6.34972 6.69161L6.35468 6.68635L11.9747 0.726671L12.5729 1.35401C12.5731 1.35425 12.5733 1.3545 12.5736 1.35475C12.7281 1.51871 12.8311 1.75383 12.8362 2.01113L12.8134 2.26863L11.9548 6.64164ZM3.13636 8.20053V18.7513H0.5V8.20053H3.13636Z" stroke="#00539F"/>
</svg>
